<?xml version="1.0" encoding="UTF-8" standalone="no"?>
<!DOCTYPE svg PUBLIC "-//W3C//DTD SVG 1.1//EN" "http://www.w3.org/Graphics/SVG/1.1/DTD/svg11.dtd">
<svg version="1.1" xmlns="http://www.w3.org/2000/svg" xmlns:xlink="http://www.w3.org/1999/xlink" preserveAspectRatio="xMidYMid meet" viewBox="0 0 640 640" width="640" height="640"><defs><path d="M464.3 320C464.3 400.83 398.67 466.46 317.84 466.46C237.01 466.46 171.38 400.83 171.38 320C171.38 239.17 237.01 173.54 317.84 173.54C398.67 173.54 464.3 239.17 464.3 320Z" id="dHEzNIbpa"></path><path d="M409.34 322.68C409.34 372.39 368.99 412.74 319.29 412.74C269.58 412.74 229.23 372.39 229.23 322.68C229.23 272.98 269.58 232.62 319.29 232.62C368.99 232.62 409.34 272.98 409.34 322.68Z" id="d2yydAOhx"></path><path d="M397.55 322.68C397.55 365.88 362.48 400.95 319.29 400.95C276.09 400.95 241.02 365.88 241.02 322.68C241.02 279.49 276.09 244.42 319.29 244.42C362.48 244.42 397.55 279.49 397.55 322.68Z" id="dfOnZO4TJ"></path><path d="M378.14 323.57C378.14 356.05 351.77 382.42 319.29 382.42C286.8 382.42 260.43 356.05 260.43 323.57C260.43 291.08 286.8 264.71 319.29 264.71C351.77 264.71 378.14 291.08 378.14 323.57Z" id="bHbyrEDbb"></path><path d="M502.41 320C502.41 345.68 481.56 366.53 455.88 366.53C430.2 366.53 409.34 345.68 409.34 320C409.34 294.32 430.2 273.47 455.88 273.47C481.56 273.47 502.41 294.32 502.41 320Z" id="fqLs9P0Ey"></path><path d="M229.23 320C229.23 345.68 208.38 366.53 182.69 366.53C157.01 366.53 136.16 345.68 136.16 320C136.16 294.32 157.01 273.47 182.69 273.47C208.38 273.47 229.23 294.32 229.23 320Z" id="dEiURMRRw"></path><path d="M326.83 67.92C332.35 67.92 336.83 72.4 336.83 77.92C336.83 100.48 336.83 158.14 336.83 180.69C336.83 186.22 332.35 190.69 326.83 190.69C322.1 190.69 317.9 190.69 313.17 190.69C307.65 190.69 303.17 186.22 303.17 180.69C303.17 158.14 303.17 100.48 303.17 77.92C303.17 72.4 307.65 67.92 313.17 67.92C317.9 67.92 322.1 67.92 326.83 67.92Z" id="b1G5nH5ccO"></path><path d="M336.83 72.48C336.83 81.76 329.29 89.31 320 89.31C310.71 89.31 303.17 81.76 303.17 72.48C303.17 63.19 310.71 55.64 320 55.64C329.29 55.64 336.83 63.19 336.83 72.48Z" id="d9i2l1ABM"></path></defs><g><g><g><g><use xlink:href="#dHEzNIbpa" opacity="1" fill="#2196f3" fill-opacity="1"></use></g><g><use xlink:href="#d2yydAOhx" opacity="1" fill="#ffffff" fill-opacity="1"></use></g><g><use xlink:href="#dfOnZO4TJ" opacity="1" fill="#2196f3" fill-opacity="1"></use></g><g><use xlink:href="#bHbyrEDbb" opacity="1" fill="#ffffff" fill-opacity="1"></use></g><g><use xlink:href="#fqLs9P0Ey" opacity="1" fill="#2196f3" fill-opacity="1"></use></g><g><use xlink:href="#dEiURMRRw" opacity="1" fill="#2196f3" fill-opacity="1"></use></g><g><g><use xlink:href="#b1G5nH5ccO" opacity="1" fill="#2196f3" fill-opacity="1"></use></g><g><use xlink:href="#d9i2l1ABM" opacity="1" fill="#2196f3" fill-opacity="1"></use></g></g></g></g></g></svg>